<svg xmlns="http://www.w3.org/2000/svg" viewBox="0 0 1600 500" preserveAspectRatio="xMidYMid slice">
  <defs>
    <linearGradient id="hero1" x1="0" y1="0" x2="0.1" y2="1">
      <stop offset="0%"   stop-color="#1e1640"/>
      <stop offset="50%"  stop-color="#16103a"/>
      <stop offset="100%" stop-color="#0c0a28"/>
    </linearGradient>
    <linearGradient id="hero2" x1="0" y1="0" x2="0" y2="1">
      <stop offset="0%"   stop-color="#241a4c"/>
      <stop offset="45%"  stop-color="#1c1444"/>
      <stop offset="100%" stop-color="#100c30"/>
    </linearGradient>
    <linearGradient id="hero3" x1="0" y1="0" x2="0.08" y2="1">
      <stop offset="0%"   stop-color="#1a1638"/>
      <stop offset="100%" stop-color="#0e0a26"/>
    </linearGradient>
    <linearGradient id="side1" x1="0" y1="0" x2="1" y2="0">
      <stop offset="0%"   stop-color="#060414"/>
      <stop offset="100%" stop-color="#1a1440"/>
    </linearGradient>
    <linearGradient id="side2" x1="1" y1="0" x2="0" y2="0">
      <stop offset="0%"   stop-color="#060414"/>
      <stop offset="100%" stop-color="#1e1848"/>
    </linearGradient>
    <!-- Neon sign gradients -->
    <linearGradient id="neonHoriz" x1="0" y1="0" x2="1" y2="0">
      <stop offset="0%"   stop-color="#00ffcc"/>
      <stop offset="50%"  stop-color="#00ccff"/>
      <stop offset="100%" stop-color="#0066ff"/>
    </linearGradient>
    <linearGradient id="neonVert" x1="0" y1="0" x2="0" y2="1">
      <stop offset="0%"   stop-color="#ff0088"/>
      <stop offset="100%" stop-color="#cc00ff"/>
    </linearGradient>
    <filter id="glow" x="-30%" y="-30%" width="160%" height="160%">
      <feGaussianBlur stdDeviation="4" result="blur"/>
      <feMerge><feMergeNode in="blur"/><feMergeNode in="SourceGraphic"/></feMerge>
    </filter>
    <filter id="softGlow" x="-50%" y="-50%" width="200%" height="200%">
      <feGaussianBlur stdDeviation="8"/>
    </filter>
    <filter id="roofGlow" x="-20%" y="-100%" width="140%" height="400%">
      <feGaussianBlur stdDeviation="5" result="blur"/>
      <feMerge><feMergeNode in="blur"/><feMergeNode in="SourceGraphic"/></feMerge>
    </filter>
  </defs>

  <!-- =========================================================
       HERO BUILDING A – Left tower
       ========================================================= -->
  <!-- Side face (right side) -->
  <rect x="248" y="38"  width="22"  height="462" fill="url(#side1)" opacity="0.90"/>
  <!-- Main face -->
  <rect x="100" y="38"  width="148" height="462" fill="url(#hero1)"/>
  <!-- Setback floors -->
  <rect x="120" y="22"  width="108" height="16"  fill="#201848" opacity="0.95"/>
  <rect x="140" y="7"   width="68"  height="15"  fill="#241c4c" opacity="0.95"/>
  <!-- Antenna assembly -->
  <rect x="170" y="-12" width="4"   height="19"  fill="#1c1640"/>
  <rect x="168" y="-16" width="8"   height="4"   fill="#1e1840"/>
  <rect x="160" y="-18" width="24"  height="2"   fill="#221c48"/>
  <!-- Warning light A1 – main antenna -->
  <circle cx="172" cy="-14" r="5" fill="#ff3333">
    <animate attributeName="opacity" values="0.2;1;1;0.2;0.2" dur="1.6s" repeatCount="indefinite"/>
  </circle>
  <!-- Roof edge neon rim – cyan -->
  <rect x="100" y="36"  width="148" height="3"   fill="#00ffcc" opacity="0.80" filter="url(#roofGlow)"/>
  <!-- Structural horizontal bands -->
  <rect x="100" y="118" width="148" height="2"   fill="#00ccff" opacity="0.25"/>
  <rect x="100" y="198" width="148" height="2"   fill="#00ccff" opacity="0.22"/>
  <rect x="100" y="278" width="148" height="2"   fill="#00ccff" opacity="0.20"/>
  <rect x="100" y="358" width="148" height="2"   fill="#00ccff" opacity="0.18"/>

  <!-- === Window grid A: 8 cols × 27 rows === -->
  <!-- Row 0 - top floor -->
  <g fill="#ffcc00">
    <rect x="108" y="44"  width="10" height="6" opacity="0.70"><animate attributeName="opacity" values="0.70;0.15;0.70;0.70" dur="4.2s" begin="0.0s" repeatCount="indefinite"/></rect>
    <rect x="122" y="44"  width="10" height="6" opacity="0.15"/>
    <rect x="136" y="44"  width="10" height="6" opacity="0.65"/>
    <rect x="150" y="44"  width="10" height="6" opacity="0.15"><animate attributeName="opacity" values="0.15;0.70;0.15" dur="3.8s" begin="1.2s" repeatCount="indefinite"/></rect>
    <rect x="164" y="44"  width="10" height="6" opacity="0.60"/>
    <rect x="178" y="44"  width="10" height="6" opacity="0.70"/>
    <rect x="192" y="44"  width="10" height="6" opacity="0.15"><animate attributeName="opacity" values="0.15;0.65;0.15" dur="5.1s" begin="0.5s" repeatCount="indefinite"/></rect>
    <rect x="226" y="44"  width="10" height="6" opacity="0.55"/>
  </g>
  <!-- Row 1 -->
  <g fill="#00ffcc">
    <rect x="108" y="58"  width="10" height="6" opacity="0.60"/>
    <rect x="136" y="58"  width="10" height="6" opacity="0.15"><animate attributeName="opacity" values="0.15;0.65;0.15" dur="3.3s" begin="0.8s" repeatCount="indefinite"/></rect>
    <rect x="150" y="58"  width="10" height="6" opacity="0.55"/>
    <rect x="178" y="58"  width="10" height="6" opacity="0.15"/>
    <rect x="206" y="58"  width="10" height="6" opacity="0.60"/>
    <rect x="226" y="58"  width="10" height="6" opacity="0.65"/>
  </g>
  <g fill="#ffcc00">
    <rect x="122" y="58"  width="10" height="6" opacity="0.55"/>
    <rect x="164" y="58"  width="10" height="6" opacity="0.15"><animate attributeName="opacity" values="0.15;0.70;0.15" dur="4.7s" begin="2.1s" repeatCount="indefinite"/></rect>
    <rect x="192" y="58"  width="10" height="6" opacity="0.60"/>
  </g>
  <!-- Rows 2-6 – block fill with sparse animated flickers -->
  <g fill="#ffcc00" opacity="0.38">
    <rect x="108" y="72"  width="10" height="6"/><rect x="122" y="72"  width="10" height="6"/><rect x="150" y="72"  width="10" height="6"/><rect x="164" y="72"  width="10" height="6"/><rect x="192" y="72"  width="10" height="6"/><rect x="226" y="72"  width="10" height="6"/>
    <rect x="136" y="86"  width="10" height="6"/><rect x="150" y="86"  width="10" height="6"/><rect x="178" y="86"  width="10" height="6"/><rect x="206" y="86"  width="10" height="6"/>
    <rect x="108" y="100" width="10" height="6"/><rect x="164" y="100" width="10" height="6"/><rect x="192" y="100" width="10" height="6"/><rect x="226" y="100" width="10" height="6"/>
    <rect x="122" y="114" width="10" height="6"/><rect x="136" y="114" width="10" height="6"/><rect x="178" y="114" width="10" height="6"/><rect x="206" y="114" width="10" height="6"/>
  </g>
  <g fill="#00ffcc" opacity="0.42">
    <rect x="136" y="72"  width="10" height="6"/><rect x="206" y="72"  width="10" height="6"/>
    <rect x="108" y="86"  width="10" height="6"/><rect x="226" y="86"  width="10" height="6"/>
    <rect x="122" y="100" width="10" height="6"/><rect x="150" y="100" width="10" height="6"/>
    <rect x="108" y="114" width="10" height="6"/><rect x="192" y="114" width="10" height="6"/>
  </g>
  <g fill="#ff0088" opacity="0.40">
    <rect x="178" y="72"  width="10" height="6"/>
    <rect x="164" y="86"  width="10" height="6"/>
    <rect x="136" y="100" width="10" height="6"/>
    <rect x="150" y="114" width="10" height="6"/>
  </g>
  <!-- Rows 7-20 – denser offset pattern -->
  <g fill="#ffcc00" opacity="0.30">
    <rect x="108" y="128" width="10" height="6"/><rect x="136" y="128" width="10" height="6"/><rect x="178" y="128" width="10" height="6"/><rect x="206" y="128" width="10" height="6"/>
    <rect x="122" y="142" width="10" height="6"/><rect x="150" y="142" width="10" height="6"/><rect x="164" y="142" width="10" height="6"/><rect x="226" y="142" width="10" height="6"/>
    <rect x="108" y="156" width="10" height="6"/><rect x="136" y="156" width="10" height="6"/><rect x="192" y="156" width="10" height="6"/>
    <rect x="150" y="170" width="10" height="6"/><rect x="178" y="170" width="10" height="6"/><rect x="206" y="170" width="10" height="6"/>
    <rect x="108" y="184" width="10" height="6"/><rect x="122" y="184" width="10" height="6"/><rect x="164" y="184" width="10" height="6"/><rect x="226" y="184" width="10" height="6"/>
    <rect x="136" y="198" width="10" height="6"/><rect x="192" y="198" width="10" height="6"/>
    <rect x="108" y="212" width="10" height="6"/><rect x="150" y="212" width="10" height="6"/><rect x="178" y="212" width="10" height="6"/>
    <rect x="122" y="226" width="10" height="6"/><rect x="164" y="226" width="10" height="6"/><rect x="206" y="226" width="10" height="6"/>
    <rect x="108" y="240" width="10" height="6"/><rect x="136" y="240" width="10" height="6"/><rect x="192" y="240" width="10" height="6"/><rect x="226" y="240" width="10" height="6"/>
    <rect x="150" y="254" width="10" height="6"/><rect x="178" y="254" width="10" height="6"/>
    <rect x="108" y="268" width="10" height="6"/><rect x="122" y="268" width="10" height="6"/><rect x="164" y="268" width="10" height="6"/>
    <rect x="136" y="282" width="10" height="6"/><rect x="192" y="282" width="10" height="6"/><rect x="206" y="282" width="10" height="6"/>
    <rect x="108" y="296" width="10" height="6"/><rect x="150" y="296" width="10" height="6"/><rect x="226" y="296" width="10" height="6"/>
    <rect x="122" y="310" width="10" height="6"/><rect x="178" y="310" width="10" height="6"/>
    <rect x="108" y="324" width="10" height="6"/><rect x="136" y="324" width="10" height="6"/><rect x="164" y="324" width="10" height="6"/>
  </g>
  <g fill="#00ffcc" opacity="0.35">
    <rect x="164" y="128" width="10" height="6"/><rect x="226" y="128" width="10" height="6"/>
    <rect x="108" y="142" width="10" height="6"/><rect x="192" y="142" width="10" height="6"/>
    <rect x="150" y="156" width="10" height="6"/><rect x="178" y="156" width="10" height="6"/>
    <rect x="136" y="170" width="10" height="6"/>
    <rect x="150" y="198" width="10" height="6"/><rect x="178" y="198" width="10" height="6"/>
    <rect x="136" y="212" width="10" height="6"/>
    <rect x="108" y="226" width="10" height="6"/>
    <rect x="150" y="240" width="10" height="6"/>
    <rect x="108" y="254" width="10" height="6"/>
    <rect x="136" y="268" width="10" height="6"/>
    <rect x="108" y="282" width="10" height="6"/>
  </g>
  <!-- Neon sign A on facade -->
  <rect x="112" y="340" width="82"  height="40"  fill="#080618" opacity="0.92" rx="2"/>
  <rect x="112" y="340" width="82"  height="3"   fill="#00ffcc" opacity="0.90" filter="url(#glow)"/>
  <rect x="112" y="377" width="82"  height="3"   fill="#00ffcc" opacity="0.90" filter="url(#glow)"/>
  <rect x="112" y="343" width="3"   height="34"  fill="#00ffcc" opacity="0.90" filter="url(#glow)"/>
  <rect x="191" y="343" width="3"   height="34"  fill="#00ffcc" opacity="0.90" filter="url(#glow)"/>
  <text x="127" y="365" font-family="monospace" font-size="11" fill="#00ffcc" opacity="0.85">SECTOR-7</text>

  <!-- =========================================================
       HERO BUILDING B – Centre tower (tallest)
       ========================================================= -->
  <!-- Side faces -->
  <rect x="720" y="5"   width="28"  height="495" fill="url(#side2)" opacity="0.88"/>
  <rect x="630" y="5"   width="22"  height="495" fill="url(#side1)" opacity="0.85"/>
  <!-- Main face -->
  <rect x="652" y="5"   width="168" height="495" fill="url(#hero2)"/>
  <!-- Stepped crown -->
  <rect x="672" y="-6"  width="128" height="11"  fill="#28205a" opacity="0.95"/>
  <rect x="692" y="-18" width="88"  height="12"  fill="#2c2460" opacity="0.95"/>
  <rect x="712" y="-30" width="48"  height="12"  fill="#30286a" opacity="0.95"/>
  <!-- Antenna spire -->
  <rect x="733" y="-62" width="6"   height="32"  fill="#201848"/>
  <rect x="729" y="-64" width="14"  height="3"   fill="#241c50"/>
  <!-- Crossbar antenna arms -->
  <rect x="718" y="-48" width="36"  height="2"   fill="#1e1a48"/>
  <rect x="722" y="-56" width="28"  height="2"   fill="#201c4a"/>
  <!-- Warning lights B – top spire -->
  <circle cx="736" cy="-64" r="6"   fill="#ff3333">
    <animate attributeName="opacity" values="1;0.1;1;1;0.1;1" dur="2.0s" repeatCount="indefinite"/>
  </circle>
  <circle cx="736" cy="-64" r="10"  fill="#ff3333" opacity="0.00">
    <animate attributeName="opacity" values="0;0.4;0" dur="2.0s" repeatCount="indefinite"/>
  </circle>
  <!-- Secondary warning lights B2 -->
  <circle cx="722" cy="-42" r="3"   fill="#ff6600" opacity="0.70">
    <animate attributeName="opacity" values="0.7;0.1;0.7" dur="0.8s" begin="0.5s" repeatCount="indefinite"/>
  </circle>
  <circle cx="750" cy="-42" r="3"   fill="#ff6600" opacity="0.70">
    <animate attributeName="opacity" values="0.7;0.1;0.7" dur="0.8s" begin="0.9s" repeatCount="indefinite"/>
  </circle>

  <!-- Roof crown neon rim – magenta gradient -->
  <rect x="652" y="3"   width="168" height="4"   fill="url(#neonHoriz)" opacity="0.85" filter="url(#roofGlow)"/>
  <!-- Horizontal structural bands -->
  <rect x="652" y="100" width="168" height="2"   fill="#cc00ff" opacity="0.22"/>
  <rect x="652" y="195" width="168" height="2"   fill="#cc00ff" opacity="0.20"/>
  <rect x="652" y="290" width="168" height="2"   fill="#cc00ff" opacity="0.18"/>
  <rect x="652" y="385" width="168" height="2"   fill="#cc00ff" opacity="0.16"/>

  <!-- === Window grid B: 10 cols × 32 rows === -->
  <!-- Animated hero windows at top -->
  <g fill="#ffcc00">
    <rect x="660" y="12"  width="12" height="7" opacity="0.80"><animate attributeName="opacity" values="0.80;0.15;0.80;0.80;0.15" dur="3.5s" begin="0.0s" repeatCount="indefinite"/></rect>
    <rect x="676" y="12"  width="12" height="7" opacity="0.15"/>
    <rect x="692" y="12"  width="12" height="7" opacity="0.75"/>
    <rect x="708" y="12"  width="12" height="7" opacity="0.15"><animate attributeName="opacity" values="0.15;0.85;0.15" dur="4.0s" begin="1.5s" repeatCount="indefinite"/></rect>
    <rect x="724" y="12"  width="12" height="7" opacity="0.80"/>
    <rect x="740" y="12"  width="12" height="7" opacity="0.15"><animate attributeName="opacity" values="0.15;0.75;0.15" dur="2.8s" begin="0.7s" repeatCount="indefinite"/></rect>
    <rect x="756" y="12"  width="12" height="7" opacity="0.70"/>
    <rect x="772" y="12"  width="12" height="7" opacity="0.80"/>
    <rect x="788" y="12"  width="12" height="7" opacity="0.15"/>
    <rect x="804" y="12"  width="12" height="7" opacity="0.75"/>
  </g>
  <!-- Row 1 mixed colours -->
  <g fill="#00ffcc">
    <rect x="660" y="26"  width="12" height="7" opacity="0.65"/>
    <rect x="692" y="26"  width="12" height="7" opacity="0.15"><animate attributeName="opacity" values="0.15;0.70;0.15" dur="4.5s" begin="2.2s" repeatCount="indefinite"/></rect>
    <rect x="724" y="26"  width="12" height="7" opacity="0.60"/>
    <rect x="756" y="26"  width="12" height="7" opacity="0.15"/>
    <rect x="788" y="26"  width="12" height="7" opacity="0.65"/>
  </g>
  <g fill="#ff0088">
    <rect x="676" y="26"  width="12" height="7" opacity="0.55"/>
    <rect x="708" y="26"  width="12" height="7" opacity="0.15"><animate attributeName="opacity" values="0.15;0.65;0.15" dur="3.9s" begin="1.0s" repeatCount="indefinite"/></rect>
    <rect x="740" y="26"  width="12" height="7" opacity="0.60"/>
    <rect x="772" y="26"  width="12" height="7" opacity="0.55"/>
    <rect x="804" y="26"  width="12" height="7" opacity="0.15"/>
  </g>
  <!-- Rows 2-12 block windows -->
  <g fill="#ffcc00" opacity="0.36">
    <rect x="660" y="40"  width="12" height="7"/><rect x="692" y="40"  width="12" height="7"/><rect x="724" y="40"  width="12" height="7"/><rect x="756" y="40"  width="12" height="7"/><rect x="788" y="40"  width="12" height="7"/>
    <rect x="676" y="54"  width="12" height="7"/><rect x="708" y="54"  width="12" height="7"/><rect x="740" y="54"  width="12" height="7"/><rect x="772" y="54"  width="12" height="7"/><rect x="804" y="54"  width="12" height="7"/>
    <rect x="660" y="68"  width="12" height="7"/><rect x="692" y="68"  width="12" height="7"/><rect x="740" y="68"  width="12" height="7"/><rect x="788" y="68"  width="12" height="7"/>
    <rect x="676" y="82"  width="12" height="7"/><rect x="724" y="82"  width="12" height="7"/><rect x="756" y="82"  width="12" height="7"/><rect x="804" y="82"  width="12" height="7"/>
    <rect x="660" y="96"  width="12" height="7"/><rect x="708" y="96"  width="12" height="7"/><rect x="740" y="96"  width="12" height="7"/>
    <rect x="692" y="110" width="12" height="7"/><rect x="724" y="110" width="12" height="7"/><rect x="772" y="110" width="12" height="7"/><rect x="804" y="110" width="12" height="7"/>
    <rect x="660" y="124" width="12" height="7"/><rect x="676" y="124" width="12" height="7"/><rect x="756" y="124" width="12" height="7"/>
    <rect x="708" y="138" width="12" height="7"/><rect x="740" y="138" width="12" height="7"/><rect x="788" y="138" width="12" height="7"/>
    <rect x="660" y="152" width="12" height="7"/><rect x="692" y="152" width="12" height="7"/><rect x="724" y="152" width="12" height="7"/><rect x="804" y="152" width="12" height="7"/>
    <rect x="676" y="166" width="12" height="7"/><rect x="756" y="166" width="12" height="7"/><rect x="772" y="166" width="12" height="7"/>
    <rect x="660" y="180" width="12" height="7"/><rect x="708" y="180" width="12" height="7"/><rect x="740" y="180" width="12" height="7"/>
    <rect x="692" y="194" width="12" height="7"/><rect x="724" y="194" width="12" height="7"/><rect x="788" y="194" width="12" height="7"/>
  </g>
  <g fill="#00ffcc" opacity="0.40">
    <rect x="676" y="40"  width="12" height="7"/><rect x="708" y="40"  width="12" height="7"/><rect x="804" y="40"  width="12" height="7"/>
    <rect x="660" y="54"  width="12" height="7"/>
    <rect x="708" y="68"  width="12" height="7"/><rect x="756" y="68"  width="12" height="7"/>
    <rect x="660" y="82"  width="12" height="7"/><rect x="740" y="82"  width="12" height="7"/>
    <rect x="676" y="96"  width="12" height="7"/><rect x="788" y="96"  width="12" height="7"/>
    <rect x="660" y="110" width="12" height="7"/><rect x="740" y="110" width="12" height="7"/>
    <rect x="692" y="124" width="12" height="7"/><rect x="788" y="124" width="12" height="7"/>
    <rect x="660" y="138" width="12" height="7"/><rect x="724" y="138" width="12" height="7"/>
    <rect x="740" y="152" width="12" height="7"/>
    <rect x="660" y="166" width="12" height="7"/>
    <rect x="788" y="180" width="12" height="7"/>
    <rect x="660" y="194" width="12" height="7"/>
  </g>
  <g fill="#ff0088" opacity="0.38">
    <rect x="740" y="40"  width="12" height="7"/>
    <rect x="756" y="54"  width="12" height="7"/>
    <rect x="660" y="68"  width="12" height="7"/>
    <rect x="788" y="82"  width="12" height="7"/>
    <rect x="756" y="96"  width="12" height="7"/>
    <rect x="676" y="110" width="12" height="7"/>
    <rect x="724" y="124" width="12" height="7"/>
    <rect x="772" y="138" width="12" height="7"/>
    <rect x="676" y="152" width="12" height="7"/>
    <rect x="724" y="166" width="12" height="7"/>
    <rect x="660" y="180" width="12" height="7"/>
    <rect x="756" y="194" width="12" height="7"/>
  </g>
  <!-- Rows 13-27 lower section (smaller opacity) -->
  <g fill="#ffcc00" opacity="0.26">
    <rect x="660" y="208" width="12" height="7"/><rect x="724" y="208" width="12" height="7"/><rect x="756" y="208" width="12" height="7"/>
    <rect x="676" y="222" width="12" height="7"/><rect x="692" y="222" width="12" height="7"/><rect x="788" y="222" width="12" height="7"/>
    <rect x="660" y="236" width="12" height="7"/><rect x="740" y="236" width="12" height="7"/>
    <rect x="708" y="250" width="12" height="7"/><rect x="756" y="250" width="12" height="7"/><rect x="804" y="250" width="12" height="7"/>
    <rect x="660" y="264" width="12" height="7"/><rect x="676" y="264" width="12" height="7"/><rect x="724" y="264" width="12" height="7"/>
    <rect x="692" y="278" width="12" height="7"/><rect x="772" y="278" width="12" height="7"/>
    <rect x="660" y="292" width="12" height="7"/><rect x="740" y="292" width="12" height="7"/><rect x="788" y="292" width="12" height="7"/>
    <rect x="708" y="306" width="12" height="7"/><rect x="756" y="306" width="12" height="7"/>
    <rect x="660" y="320" width="12" height="7"/><rect x="692" y="320" width="12" height="7"/><rect x="804" y="320" width="12" height="7"/>
    <rect x="724" y="334" width="12" height="7"/><rect x="772" y="334" width="12" height="7"/>
    <rect x="660" y="348" width="12" height="7"/><rect x="708" y="348" width="12" height="7"/>
    <rect x="676" y="362" width="12" height="7"/><rect x="740" y="362" width="12" height="7"/><rect x="788" y="362" width="12" height="7"/>
    <rect x="660" y="376" width="12" height="7"/><rect x="756" y="376" width="12" height="7"/>
  </g>
  <g fill="#00ffcc" opacity="0.30">
    <rect x="772" y="208" width="12" height="7"/>
    <rect x="660" y="222" width="12" height="7"/>
    <rect x="804" y="236" width="12" height="7"/>
    <rect x="676" y="250" width="12" height="7"/>
    <rect x="788" y="264" width="12" height="7"/>
    <rect x="660" y="278" width="12" height="7"/>
    <rect x="724" y="292" width="12" height="7"/>
    <rect x="660" y="306" width="12" height="7"/>
    <rect x="788" y="320" width="12" height="7"/>
    <rect x="660" y="334" width="12" height="7"/>
    <rect x="804" y="348" width="12" height="7"/>
    <rect x="692" y="376" width="12" height="7"/>
  </g>

  <!-- === Large Neon Sign B on facade (main) === -->
  <!-- Sign board -->
  <rect x="656" y="400" width="160" height="72"  fill="#060415" opacity="0.94" rx="3"/>
  <!-- Border glow -->
  <rect x="656" y="400" width="160" height="3"   fill="url(#neonHoriz)" opacity="0.95" filter="url(#glow)"/>
  <rect x="656" y="469" width="160" height="3"   fill="url(#neonHoriz)" opacity="0.95" filter="url(#glow)"/>
  <rect x="656" y="403" width="3"   height="66"  fill="#00ffcc" opacity="0.95" filter="url(#glow)"/>
  <rect x="813" y="403" width="3"   height="66"  fill="#00ffcc" opacity="0.95" filter="url(#glow)"/>
  <!-- Scanline bands for retro CRT look -->
  <rect x="659" y="415" width="154" height="1"   fill="#00ffcc" opacity="0.20"/>
  <rect x="659" y="429" width="154" height="1"   fill="#00ffcc" opacity="0.18"/>
  <rect x="659" y="443" width="154" height="1"   fill="#00ffcc" opacity="0.15"/>
  <rect x="659" y="457" width="154" height="1"   fill="#00ffcc" opacity="0.12"/>
  <!-- Sign text -->
  <text x="679"  y="435" font-family="monospace" font-size="18" font-weight="bold" fill="#00ffcc" opacity="0.92" letter-spacing="4">OMEGA</text>
  <text x="683"  y="458" font-family="monospace" font-size="12" fill="#0099cc" opacity="0.78" letter-spacing="6">CORP</text>
  <!-- Blinking accent -->
  <rect x="670"  y="408" width="8"   height="5"  fill="#ff0088" opacity="0.80">
    <animate attributeName="opacity" values="0.80;0.10;0.80;0.80;0.10" dur="2.8s" repeatCount="indefinite"/>
  </rect>
  <rect x="793"  y="408" width="8"   height="5"  fill="#ff0088" opacity="0.80">
    <animate attributeName="opacity" values="0.80;0.10;0.80;0.80;0.10" dur="2.8s" begin="1.4s" repeatCount="indefinite"/>
  </rect>

  <!-- Holographic vertical neon strip on right edge of centre building -->
  <rect x="812"  y="50"  width="5"   height="340" fill="url(#neonVert)" opacity="0.55" filter="url(#glow)"/>

  <!-- =========================================================
       HERO BUILDING C – Right tower
       ========================================================= -->
  <!-- Side face -->
  <rect x="1302" y="48"  width="20"  height="452" fill="url(#side1)" opacity="0.90"/>
  <!-- Main face -->
  <rect x="1140" y="48"  width="162" height="452" fill="url(#hero3)"/>
  <!-- Stepped crown -->
  <rect x="1158" y="34"  width="126" height="14"  fill="#1c1440" opacity="0.95"/>
  <rect x="1176" y="20"  width="90"  height="14"  fill="#201848" opacity="0.95"/>
  <!-- Antenna -->
  <rect x="1217" y="-4"  width="5"   height="24"  fill="#1c1440"/>
  <rect x="1213" y="-6"  width="13"  height="3"   fill="#201848"/>
  <!-- Warning light C -->
  <circle cx="1219" cy="-5" r="5"  fill="#ff3333">
    <animate attributeName="opacity" values="0.1;1;1;0.1" dur="1.3s" begin="0.4s" repeatCount="indefinite"/>
  </circle>
  <!-- Roof neon rim – yellow/orange -->
  <rect x="1140" y="46"  width="162" height="3"   fill="#ff6600" opacity="0.78" filter="url(#roofGlow)"/>
  <!-- Structural bands -->
  <rect x="1140" y="148" width="162" height="2"   fill="#ff6600" opacity="0.20"/>
  <rect x="1140" y="248" width="162" height="2"   fill="#ff6600" opacity="0.18"/>
  <rect x="1140" y="348" width="162" height="2"   fill="#ff6600" opacity="0.16"/>

  <!-- === Window grid C: 9 cols × 28 rows === -->
  <g fill="#ffcc00">
    <rect x="1148" y="55"  width="11" height="6" opacity="0.75"><animate attributeName="opacity" values="0.75;0.12;0.75" dur="4.8s" begin="0.3s" repeatCount="indefinite"/></rect>
    <rect x="1163" y="55"  width="11" height="6" opacity="0.12"/>
    <rect x="1178" y="55"  width="11" height="6" opacity="0.70"/>
    <rect x="1193" y="55"  width="11" height="6" opacity="0.75"/>
    <rect x="1208" y="55"  width="11" height="6" opacity="0.12"><animate attributeName="opacity" values="0.12;0.78;0.12" dur="3.6s" begin="1.8s" repeatCount="indefinite"/></rect>
    <rect x="1223" y="55"  width="11" height="6" opacity="0.72"/>
    <rect x="1238" y="55"  width="11" height="6" opacity="0.12"/>
    <rect x="1253" y="55"  width="11" height="6" opacity="0.68"/>
    <rect x="1268" y="55"  width="11" height="6" opacity="0.75"/>
  </g>
  <!-- Row 1 -->
  <g fill="#00ffcc">
    <rect x="1148" y="68"  width="11" height="6" opacity="0.60"/>
    <rect x="1178" y="68"  width="11" height="6" opacity="0.12"><animate attributeName="opacity" values="0.12;0.65;0.12" dur="3.2s" begin="0.9s" repeatCount="indefinite"/></rect>
    <rect x="1208" y="68"  width="11" height="6" opacity="0.58"/>
    <rect x="1238" y="68"  width="11" height="6" opacity="0.12"/>
    <rect x="1268" y="68"  width="11" height="6" opacity="0.62"/>
  </g>
  <g fill="#ff0088">
    <rect x="1163" y="68"  width="11" height="6" opacity="0.55"/>
    <rect x="1193" y="68"  width="11" height="6" opacity="0.12"><animate attributeName="opacity" values="0.12;0.62;0.12" dur="4.1s" begin="2.4s" repeatCount="indefinite"/></rect>
    <rect x="1223" y="68"  width="11" height="6" opacity="0.58"/>
    <rect x="1253" y="68"  width="11" height="6" opacity="0.55"/>
  </g>
  <!-- Bulk window rows C -->
  <g fill="#ffcc00" opacity="0.32">
    <rect x="1148" y="81"  width="11" height="6"/><rect x="1178" y="81"  width="11" height="6"/><rect x="1223" y="81"  width="11" height="6"/><rect x="1268" y="81"  width="11" height="6"/>
    <rect x="1163" y="95"  width="11" height="6"/><rect x="1193" y="95"  width="11" height="6"/><rect x="1238" y="95"  width="11" height="6"/>
    <rect x="1148" y="109" width="11" height="6"/><rect x="1208" y="109" width="11" height="6"/><rect x="1253" y="109" width="11" height="6"/>
    <rect x="1178" y="123" width="11" height="6"/><rect x="1223" y="123" width="11" height="6"/><rect x="1268" y="123" width="11" height="6"/>
    <rect x="1148" y="137" width="11" height="6"/><rect x="1163" y="137" width="11" height="6"/><rect x="1238" y="137" width="11" height="6"/>
    <rect x="1193" y="151" width="11" height="6"/><rect x="1208" y="151" width="11" height="6"/>
    <rect x="1148" y="165" width="11" height="6"/><rect x="1253" y="165" width="11" height="6"/><rect x="1268" y="165" width="11" height="6"/>
    <rect x="1163" y="179" width="11" height="6"/><rect x="1223" y="179" width="11" height="6"/>
    <rect x="1148" y="193" width="11" height="6"/><rect x="1178" y="193" width="11" height="6"/><rect x="1238" y="193" width="11" height="6"/>
    <rect x="1208" y="207" width="11" height="6"/><rect x="1253" y="207" width="11" height="6"/>
    <rect x="1148" y="221" width="11" height="6"/><rect x="1193" y="221" width="11" height="6"/>
    <rect x="1163" y="235" width="11" height="6"/><rect x="1223" y="235" width="11" height="6"/><rect x="1268" y="235" width="11" height="6"/>
    <rect x="1148" y="249" width="11" height="6"/><rect x="1238" y="249" width="11" height="6"/>
    <rect x="1178" y="263" width="11" height="6"/><rect x="1208" y="263" width="11" height="6"/>
    <rect x="1148" y="277" width="11" height="6"/><rect x="1253" y="277" width="11" height="6"/>
    <rect x="1163" y="291" width="11" height="6"/><rect x="1193" y="291" width="11" height="6"/><rect x="1268" y="291" width="11" height="6"/>
    <rect x="1148" y="305" width="11" height="6"/><rect x="1223" y="305" width="11" height="6"/>
    <rect x="1178" y="319" width="11" height="6"/><rect x="1238" y="319" width="11" height="6"/>
    <rect x="1148" y="333" width="11" height="6"/><rect x="1208" y="333" width="11" height="6"/>
    <rect x="1163" y="347" width="11" height="6"/><rect x="1253" y="347" width="11" height="6"/>
  </g>
  <g fill="#00ffcc" opacity="0.36">
    <rect x="1163" y="81"  width="11" height="6"/><rect x="1208" y="81"  width="11" height="6"/>
    <rect x="1148" y="95"  width="11" height="6"/><rect x="1268" y="95"  width="11" height="6"/>
    <rect x="1163" y="109" width="11" height="6"/>
    <rect x="1193" y="123" width="11" height="6"/>
    <rect x="1193" y="137" width="11" height="6"/>
    <rect x="1148" y="151" width="11" height="6"/>
    <rect x="1178" y="165" width="11" height="6"/>
    <rect x="1268" y="179" width="11" height="6"/>
    <rect x="1253" y="193" width="11" height="6"/>
    <rect x="1163" y="207" width="11" height="6"/>
    <rect x="1238" y="221" width="11" height="6"/>
    <rect x="1148" y="235" width="11" height="6"/>
  </g>

  <!-- Neon sign C on facade -->
  <rect x="1148" y="360" width="105" height="60"  fill="#06040e" opacity="0.94" rx="2"/>
  <rect x="1148" y="360" width="105" height="3"   fill="#ff0088" opacity="0.92" filter="url(#glow)"/>
  <rect x="1148" y="417" width="105" height="3"   fill="#ff0088" opacity="0.92" filter="url(#glow)"/>
  <rect x="1148" y="363" width="3"   height="54"  fill="#ff0088" opacity="0.92" filter="url(#glow)"/>
  <rect x="1250" y="363" width="3"   height="54"  fill="#ff0088" opacity="0.92" filter="url(#glow)"/>
  <rect x="1148" y="388" width="105" height="1"   fill="#ff0088" opacity="0.30"/>
  <text x="1160" y="382" font-family="monospace" font-size="13" font-weight="bold" fill="#ff0088" opacity="0.88" letter-spacing="3">VOID</text>
  <text x="1156" y="408" font-family="monospace" font-size="11" fill="#cc0066" opacity="0.75" letter-spacing="4">LABS</text>

  <!-- Vertical neon spine on C building right edge -->
  <rect x="1299" y="60"  width="4"   height="280" fill="url(#neonVert)" opacity="0.48" filter="url(#glow)"/>

  <!-- =========================================================
       EXTRA FLANKING BUILDINGS (fill sides)
       ========================================================= -->
  <!-- Left flank -->
  <rect x="0"    y="75"  width="100" height="425" fill="#10092a" opacity="0.95"/>
  <rect x="0"    y="62"  width="100" height="13"  fill="#140c30" opacity="0.95"/>
  <rect x="0"    y="60"  width="100" height="3"   fill="#cc00ff" opacity="0.60" filter="url(#roofGlow)"/>
  <g fill="#ffcc00" opacity="0.28">
    <rect x="8"   y="78"  width="9" height="5"/><rect x="22"  y="78"  width="9" height="5"/><rect x="36"  y="78"  width="9" height="5"/><rect x="50"  y="78"  width="9" height="5"/><rect x="64"  y="78"  width="9" height="5"/>
    <rect x="8"   y="92"  width="9" height="5"/>                                              <rect x="36"  y="92"  width="9" height="5"/>                                              <rect x="64"  y="92"  width="9" height="5"/>
    <rect x="22"  y="106" width="9" height="5"/><rect x="50"  y="106" width="9" height="5"/>
    <rect x="8"   y="120" width="9" height="5"/><rect x="36"  y="120" width="9" height="5"/>
    <rect x="22"  y="134" width="9" height="5"/><rect x="64"  y="134" width="9" height="5"/>
    <rect x="8"   y="148" width="9" height="5"/><rect x="50"  y="148" width="9" height="5"/>
    <rect x="36"  y="162" width="9" height="5"/><rect x="64"  y="162" width="9" height="5"/>
  </g>
  <circle cx="50"  cy="58" r="4"  fill="#ff3333" opacity="0.80">
    <animate attributeName="opacity" values="0.1;0.85;0.1" dur="1.8s" begin="0.6s" repeatCount="indefinite"/>
  </circle>

  <!-- Right flank -->
  <rect x="1500" y="80"  width="100" height="420" fill="#0e0826" opacity="0.95"/>
  <rect x="1500" y="67"  width="100" height="13"  fill="#120a2c" opacity="0.95"/>
  <rect x="1500" y="65"  width="100" height="3"   fill="#00ff88" opacity="0.60" filter="url(#roofGlow)"/>
  <g fill="#ffcc00" opacity="0.28">
    <rect x="1508" y="84"  width="9" height="5"/><rect x="1522" y="84"  width="9" height="5"/><rect x="1536" y="84"  width="9" height="5"/><rect x="1550" y="84"  width="9" height="5"/><rect x="1564" y="84"  width="9" height="5"/>
    <rect x="1508" y="98"  width="9" height="5"/>                                              <rect x="1536" y="98"  width="9" height="5"/>
    <rect x="1522" y="112" width="9" height="5"/><rect x="1564" y="112" width="9" height="5"/>
    <rect x="1508" y="126" width="9" height="5"/><rect x="1550" y="126" width="9" height="5"/>
    <rect x="1536" y="140" width="9" height="5"/><rect x="1564" y="140" width="9" height="5"/>
    <rect x="1508" y="154" width="9" height="5"/>
  </g>
  <circle cx="1550" cy="63" r="4"  fill="#ff3333" opacity="0.80">
    <animate attributeName="opacity" values="0.1;0.85;0.1" dur="1.5s" begin="1.1s" repeatCount="indefinite"/>
  </circle>

  <!-- Connecting skyway between A and B -->
  <rect x="248" y="200" width="404" height="8"   fill="#120e30" opacity="0.80"/>
  <rect x="248" y="200" width="404" height="2"   fill="#00ccff" opacity="0.40"/>
  <!-- Skyway B to C -->
  <rect x="748" y="180" width="392" height="8"   fill="#120e30" opacity="0.80"/>
  <rect x="748" y="180" width="392" height="2"   fill="#cc00ff" opacity="0.38"/>
</svg>
