<svg xmlns="http://www.w3.org/2000/svg" viewBox="0 0 1600 500" preserveAspectRatio="xMidYMid slice">
  <defs>
    <!-- Mid-rise building face gradient -->
    <linearGradient id="bldA" x1="0" y1="0" x2="0" y2="1">
      <stop offset="0%"   stop-color="#1a1230"/>
      <stop offset="100%" stop-color="#0c0820"/>
    </linearGradient>
    <linearGradient id="bldB" x1="0" y1="0" x2="0" y2="1">
      <stop offset="0%"   stop-color="#1e1438"/>
      <stop offset="100%" stop-color="#0e0a24"/>
    </linearGradient>
    <linearGradient id="bldC" x1="0" y1="0" x2="0" y2="1">
      <stop offset="0%"   stop-color="#14102a"/>
      <stop offset="100%" stop-color="#0a0818"/>
    </linearGradient>
    <!-- Side face (darker) -->
    <linearGradient id="sideA" x1="0" y1="0" x2="1" y2="0">
      <stop offset="0%"   stop-color="#08060e"/>
      <stop offset="100%" stop-color="#14102a"/>
    </linearGradient>
    <!-- Roof edge glow: neon -->
    <filter id="neonGlow" x="-20%" y="-20%" width="140%" height="140%">
      <feGaussianBlur stdDeviation="3" result="blur"/>
      <feMerge><feMergeNode in="blur"/><feMergeNode in="SourceGraphic"/></feMerge>
    </filter>
    <filter id="softGlow">
      <feGaussianBlur stdDeviation="5"/>
    </filter>
  </defs>

  <!-- ===== BUILDING GROUP 1 – far left ===== -->
  <!-- Slab block -->
  <rect x="0"   y="280" width="72"  height="220" fill="url(#bldC)"/>
  <rect x="0"   y="264" width="72"  height="16"  fill="#12103a" opacity="0.90"/>
  <!-- windows -->
  <g fill="#ffcc00" opacity="0.28">
    <rect x="8"  y="275" width="6" height="4"/><rect x="20" y="275" width="6" height="4"/><rect x="32" y="275" width="6" height="4"/><rect x="44" y="275" width="6" height="4"/>
    <rect x="8"  y="288" width="6" height="4"/><rect x="32" y="288" width="6" height="4"/>
    <rect x="20" y="301" width="6" height="4"/><rect x="44" y="301" width="6" height="4"/>
    <rect x="8"  y="314" width="6" height="4"/><rect x="32" y="314" width="6" height="4"/>
  </g>
  <g fill="#00ffcc" opacity="0.35">
    <rect x="58" y="280" width="6" height="4"/><rect x="58" y="296" width="6" height="4"/>
  </g>
  <!-- roof neon rim -->
  <rect x="0"   y="262" width="72"  height="2"   fill="#cc0066" opacity="0.70" filter="url(#neonGlow)"/>

  <!-- ===== BUILDING GROUP 2 ===== -->
  <rect x="68"  y="220" width="88"  height="280" fill="url(#bldA)"/>
  <rect x="68"  y="205" width="88"  height="15"  fill="#1c1440" opacity="0.90"/>
  <!-- step-back top -->
  <rect x="90"  y="188" width="44"  height="32"  fill="#1e1642"/>
  <rect x="90"  y="185" width="44"  height="3"   fill="#00ffcc" opacity="0.65" filter="url(#neonGlow)"/>
  <!-- windows grid -->
  <g fill="#ffcc00" opacity="0.30">
    <rect x="76"  y="215" width="8" height="5"/><rect x="90"  y="215" width="8" height="5"/><rect x="104" y="215" width="8" height="5"/><rect x="118" y="215" width="8" height="5"/><rect x="132" y="215" width="8" height="5"/>
    <rect x="76"  y="228" width="8" height="5"/>                                              <rect x="104" y="228" width="8" height="5"/>                                              <rect x="132" y="228" width="8" height="5"/>
    <rect x="76"  y="241" width="8" height="5"/><rect x="90"  y="241" width="8" height="5"/>                                              <rect x="118" y="241" width="8" height="5"/>
    <rect x="90"  y="254" width="8" height="5"/><rect x="104" y="254" width="8" height="5"/><rect x="132" y="254" width="8" height="5"/>
    <rect x="76"  y="267" width="8" height="5"/>                                              <rect x="104" y="267" width="8" height="5"/><rect x="118" y="267" width="8" height="5"/>
  </g>
  <g fill="#ff0088" opacity="0.40">
    <rect x="118" y="228" width="8" height="5"/>
    <rect x="90"  y="280" width="8" height="5"/>
    <rect x="132" y="293" width="8" height="5"/>
  </g>
  <!-- antenna -->
  <rect x="107" y="165" width="3"   height="23"  fill="#1c1440"/>
  <circle cx="108" cy="164" r="3"   fill="#ff3333" opacity="0.80"/>
  <!-- Warning blink animation on this building's antenna -->
  <circle cx="108" cy="164" r="3"   fill="#ff3333" opacity="0.00">
    <animate attributeName="opacity" values="0;0.9;0" dur="1.4s" repeatCount="indefinite"/>
  </circle>

  <!-- ===== BUILDING GROUP 3 – mid-left ===== -->
  <rect x="152" y="245" width="60"  height="255" fill="url(#bldB)"/>
  <rect x="152" y="232" width="60"  height="13"  fill="#1a1238" opacity="0.90"/>
  <g fill="#ffcc00" opacity="0.26">
    <rect x="158" y="248" width="6" height="4"/><rect x="170" y="248" width="6" height="4"/><rect x="182" y="248" width="6" height="4"/><rect x="194" y="248" width="6" height="4"/>
    <rect x="158" y="260" width="6" height="4"/>                                              <rect x="182" y="260" width="6" height="4"/>
    <rect x="170" y="272" width="6" height="4"/><rect x="194" y="272" width="6" height="4"/>
    <rect x="158" y="284" width="6" height="4"/><rect x="182" y="284" width="6" height="4"/>
  </g>
  <rect x="152" y="230" width="60"  height="2"   fill="#6600ff" opacity="0.55" filter="url(#neonGlow)"/>

  <!-- Connecting skyway bridge -->
  <rect x="148" y="316" width="80"  height="5"   fill="#1a1240" opacity="0.80"/>
  <rect x="148" y="316" width="80"  height="1"   fill="#00ffcc" opacity="0.40"/>

  <!-- ===== BUILDING GROUP 4 – left-centre ===== -->
  <rect x="248" y="195" width="110" height="305" fill="url(#bldA)"/>
  <!-- stepped top -->
  <rect x="268" y="178" width="70"  height="17"  fill="#201848"/>
  <rect x="286" y="158" width="34"  height="20"  fill="#221a4a"/>
  <rect x="286" y="155" width="34"  height="3"   fill="#ff0088" opacity="0.70" filter="url(#neonGlow)"/>
  <!-- wide windows -->
  <g fill="#ffcc00" opacity="0.28">
    <rect x="256" y="200" width="10" height="6"/><rect x="272" y="200" width="10" height="6"/><rect x="288" y="200" width="10" height="6"/><rect x="304" y="200" width="10" height="6"/><rect x="320" y="200" width="10" height="6"/><rect x="336" y="200" width="10" height="6"/>
    <rect x="256" y="216" width="10" height="6"/>                                              <rect x="288" y="216" width="10" height="6"/>                                              <rect x="320" y="216" width="10" height="6"/>
    <rect x="272" y="232" width="10" height="6"/><rect x="304" y="232" width="10" height="6"/><rect x="336" y="232" width="10" height="6"/>
    <rect x="256" y="248" width="10" height="6"/><rect x="272" y="248" width="10" height="6"/>                                              <rect x="320" y="248" width="10" height="6"/>
    <rect x="288" y="264" width="10" height="6"/><rect x="304" y="264" width="10" height="6"/><rect x="336" y="264" width="10" height="6"/>
    <rect x="256" y="280" width="10" height="6"/>                                              <rect x="304" y="280" width="10" height="6"/>
  </g>
  <g fill="#00ffcc" opacity="0.42">
    <rect x="272" y="216" width="10" height="6"/>
    <rect x="288" y="248" width="10" height="6"/>
    <rect x="256" y="264" width="10" height="6"/>
    <rect x="320" y="280" width="10" height="6"/>
  </g>
  <!-- antenna pair -->
  <rect x="292" y="133" width="2"   height="25"  fill="#1c1440"/>
  <rect x="306" y="140" width="2"   height="18"  fill="#1c1440"/>
  <circle cx="293" cy="132" r="3"   fill="#ff3333" opacity="0.85">
    <animate attributeName="opacity" values="0.2;1;0.2" dur="1.1s" repeatCount="indefinite"/>
  </circle>
  <!-- neon stripe on facade -->
  <rect x="248" y="193" width="110" height="2"   fill="#00ffcc" opacity="0.50" filter="url(#neonGlow)"/>

  <!-- ===== BUILDING GROUP 5 – left-of-centre ===== -->
  <rect x="362" y="230" width="80"  height="270" fill="url(#bldC)"/>
  <rect x="362" y="218" width="80"  height="12"  fill="#16103a" opacity="0.90"/>
  <g fill="#ffcc00" opacity="0.26">
    <rect x="370" y="234" width="8" height="5"/><rect x="384" y="234" width="8" height="5"/><rect x="398" y="234" width="8" height="5"/><rect x="412" y="234" width="8" height="5"/><rect x="426" y="234" width="8" height="5"/>
    <rect x="370" y="248" width="8" height="5"/>                                              <rect x="398" y="248" width="8" height="5"/>                                              <rect x="426" y="248" width="8" height="5"/>
    <rect x="384" y="262" width="8" height="5"/><rect x="412" y="262" width="8" height="5"/>
    <rect x="370" y="276" width="8" height="5"/><rect x="398" y="276" width="8" height="5"/><rect x="426" y="276" width="8" height="5"/>
  </g>
  <g fill="#ff0088" opacity="0.38">
    <rect x="384" y="248" width="8" height="5"/>
    <rect x="412" y="276" width="8" height="5"/>
  </g>
  <rect x="362" y="216" width="80"  height="2"   fill="#cc6600" opacity="0.55" filter="url(#neonGlow)"/>

  <!-- ===== BUILDING GROUP 6 – centre-left ===== -->
  <rect x="446" y="210" width="95"  height="290" fill="url(#bldB)"/>
  <rect x="455" y="195" width="77"  height="15"  fill="#1c1440" opacity="0.90"/>
  <rect x="467" y="175" width="53"  height="20"  fill="#201848"/>
  <rect x="467" y="172" width="53"  height="3"   fill="#00ccff" opacity="0.65" filter="url(#neonGlow)"/>
  <g fill="#ffcc00" opacity="0.27">
    <rect x="454" y="214" width="9" height="5"/><rect x="469" y="214" width="9" height="5"/><rect x="484" y="214" width="9" height="5"/><rect x="499" y="214" width="9" height="5"/><rect x="514" y="214" width="9" height="5"/><rect x="529" y="214" width="9" height="5"/>
    <rect x="454" y="228" width="9" height="5"/>                                              <rect x="484" y="228" width="9" height="5"/>                                              <rect x="514" y="228" width="9" height="5"/>
    <rect x="469" y="242" width="9" height="5"/><rect x="499" y="242" width="9" height="5"/><rect x="529" y="242" width="9" height="5"/>
    <rect x="454" y="256" width="9" height="5"/><rect x="484" y="256" width="9" height="5"/><rect x="514" y="256" width="9" height="5"/>
    <rect x="469" y="270" width="9" height="5"/><rect x="499" y="270" width="9" height="5"/>
    <rect x="454" y="284" width="9" height="5"/><rect x="529" y="284" width="9" height="5"/>
  </g>
  <g fill="#00ffcc" opacity="0.38">
    <rect x="469" y="228" width="9" height="5"/>
    <rect x="514" y="242" width="9" height="5"/>
    <rect x="484" y="270" width="9" height="5"/>
  </g>
  <rect x="446" y="208" width="95"  height="2"   fill="#0066ff" opacity="0.50" filter="url(#neonGlow)"/>
  <!-- antenna -->
  <rect x="488" y="155" width="2"   height="20"  fill="#1c1440"/>
  <circle cx="489" cy="154" r="2.5" fill="#ff3333" opacity="0.80">
    <animate attributeName="opacity" values="0.15;0.95;0.15" dur="1.6s" repeatCount="indefinite"/>
  </circle>

  <!-- ===== BUILDING GROUP 7 – centre ===== -->
  <rect x="544" y="240" width="70"  height="260" fill="url(#bldA)"/>
  <rect x="544" y="228" width="70"  height="12"  fill="#1a1238" opacity="0.90"/>
  <g fill="#ffcc00" opacity="0.26">
    <rect x="552" y="242" width="8" height="5"/><rect x="566" y="242" width="8" height="5"/><rect x="580" y="242" width="8" height="5"/><rect x="594" y="242" width="8" height="5"/>
    <rect x="552" y="256" width="8" height="5"/>                                              <rect x="580" y="256" width="8" height="5"/>
    <rect x="566" y="270" width="8" height="5"/><rect x="594" y="270" width="8" height="5"/>
    <rect x="552" y="284" width="8" height="5"/><rect x="580" y="284" width="8" height="5"/>
  </g>
  <rect x="544" y="226" width="70"  height="2"   fill="#9900ff" opacity="0.55" filter="url(#neonGlow)"/>

  <!-- ===== BUILDING GROUP 8 – centre-right ===== -->
  <rect x="618" y="200" width="100" height="300" fill="url(#bldB)"/>
  <rect x="630" y="185" width="76"  height="15"  fill="#1e1648" opacity="0.90"/>
  <rect x="645" y="165" width="46"  height="20"  fill="#221a4c"/>
  <rect x="645" y="162" width="46"  height="3"   fill="#ff6600" opacity="0.65" filter="url(#neonGlow)"/>
  <g fill="#ffcc00" opacity="0.28">
    <rect x="626" y="204" width="10" height="6"/><rect x="642" y="204" width="10" height="6"/><rect x="658" y="204" width="10" height="6"/><rect x="674" y="204" width="10" height="6"/><rect x="690" y="204" width="10" height="6"/><rect x="706" y="204" width="10" height="6"/>
    <rect x="626" y="220" width="10" height="6"/>                                              <rect x="658" y="220" width="10" height="6"/>                                              <rect x="690" y="220" width="10" height="6"/>
    <rect x="642" y="236" width="10" height="6"/><rect x="674" y="236" width="10" height="6"/><rect x="706" y="236" width="10" height="6"/>
    <rect x="626" y="252" width="10" height="6"/><rect x="658" y="252" width="10" height="6"/><rect x="690" y="252" width="10" height="6"/>
    <rect x="642" y="268" width="10" height="6"/><rect x="674" y="268" width="10" height="6"/>
    <rect x="626" y="284" width="10" height="6"/><rect x="706" y="284" width="10" height="6"/>
  </g>
  <g fill="#ff0088" opacity="0.40">
    <rect x="642" y="220" width="10" height="6"/>
    <rect x="690" y="236" width="10" height="6"/>
    <rect x="658" y="268" width="10" height="6"/>
  </g>
  <rect x="618" y="198" width="100" height="2"   fill="#ff0066" opacity="0.55" filter="url(#neonGlow)"/>
  <!-- antenna -->
  <rect x="665" y="143" width="3"   height="22"  fill="#1c1440"/>
  <circle cx="666" cy="142" r="3.5" fill="#ff3333" opacity="0.88">
    <animate attributeName="opacity" values="0.2;1;0.2" dur="0.9s" repeatCount="indefinite"/>
  </circle>

  <!-- ===== BUILDING GROUP 9 – right-centre ===== -->
  <rect x="722" y="225" width="85"  height="275" fill="url(#bldC)"/>
  <rect x="722" y="212" width="85"  height="13"  fill="#14103a" opacity="0.90"/>
  <g fill="#ffcc00" opacity="0.27">
    <rect x="730" y="228" width="8" height="5"/><rect x="744" y="228" width="8" height="5"/><rect x="758" y="228" width="8" height="5"/><rect x="772" y="228" width="8" height="5"/><rect x="786" y="228" width="8" height="5"/>
    <rect x="730" y="242" width="8" height="5"/>                                              <rect x="758" y="242" width="8" height="5"/>                                              <rect x="786" y="242" width="8" height="5"/>
    <rect x="744" y="256" width="8" height="5"/><rect x="772" y="256" width="8" height="5"/>
    <rect x="730" y="270" width="8" height="5"/><rect x="758" y="270" width="8" height="5"/><rect x="786" y="270" width="8" height="5"/>
  </g>
  <g fill="#00ffcc" opacity="0.38">
    <rect x="744" y="242" width="8" height="5"/>
    <rect x="772" y="270" width="8" height="5"/>
  </g>
  <rect x="722" y="210" width="85"  height="2"   fill="#00ffcc" opacity="0.50" filter="url(#neonGlow)"/>

  <!-- ===== BUILDING GROUP 10 – right ===== -->
  <rect x="812" y="195" width="90"  height="305" fill="url(#bldA)"/>
  <rect x="822" y="180" width="70"  height="15"  fill="#1e1648" opacity="0.90"/>
  <rect x="836" y="160" width="42"  height="20"  fill="#201a4a"/>
  <rect x="836" y="157" width="42"  height="3"   fill="#ff00cc" opacity="0.65" filter="url(#neonGlow)"/>
  <g fill="#ffcc00" opacity="0.28">
    <rect x="820" y="198" width="10" height="6"/><rect x="836" y="198" width="10" height="6"/><rect x="852" y="198" width="10" height="6"/><rect x="868" y="198" width="10" height="6"/><rect x="884" y="198" width="10" height="6"/>
    <rect x="820" y="214" width="10" height="6"/>                                              <rect x="852" y="214" width="10" height="6"/>                                              <rect x="884" y="214" width="10" height="6"/>
    <rect x="836" y="230" width="10" height="6"/><rect x="868" y="230" width="10" height="6"/>
    <rect x="820" y="246" width="10" height="6"/><rect x="852" y="246" width="10" height="6"/><rect x="884" y="246" width="10" height="6"/>
    <rect x="836" y="262" width="10" height="6"/><rect x="868" y="262" width="10" height="6"/>
    <rect x="820" y="278" width="10" height="6"/>                                              <rect x="852" y="278" width="10" height="6"/>
  </g>
  <g fill="#ff0088" opacity="0.38">
    <rect x="836" y="214" width="10" height="6"/>
    <rect x="868" y="246" width="10" height="6"/>
  </g>
  <rect x="812" y="193" width="90"  height="2"   fill="#cc00ff" opacity="0.50" filter="url(#neonGlow)"/>
  <!-- antenna -->
  <rect x="853" y="138" width="3"   height="22"  fill="#1c1440"/>
  <circle cx="854" cy="137" r="3"   fill="#ff3333" opacity="0.85">
    <animate attributeName="opacity" values="0.15;1;0.15" dur="1.3s" repeatCount="indefinite"/>
  </circle>

  <!-- ===== BUILDING GROUP 11 – far right ===== -->
  <rect x="906"  y="235" width="75"  height="265" fill="url(#bldB)"/>
  <rect x="906"  y="222" width="75"  height="13"  fill="#18123a" opacity="0.90"/>
  <g fill="#ffcc00" opacity="0.26">
    <rect x="914" y="238" width="8" height="5"/><rect x="928" y="238" width="8" height="5"/><rect x="942" y="238" width="8" height="5"/><rect x="956" y="238" width="8" height="5"/><rect x="970" y="238" width="8" height="5"/>
    <rect x="914" y="252" width="8" height="5"/>                                              <rect x="942" y="252" width="8" height="5"/>                                              <rect x="970" y="252" width="8" height="5"/>
    <rect x="928" y="266" width="8" height="5"/><rect x="956" y="266" width="8" height="5"/>
    <rect x="914" y="280" width="8" height="5"/><rect x="942" y="280" width="8" height="5"/>
  </g>
  <rect x="906"  y="220" width="75"  height="2"   fill="#6600cc" opacity="0.55" filter="url(#neonGlow)"/>

  <!-- Skyway bridge between groups 10 and 11 -->
  <rect x="901"  y="268" width="16"  height="4"   fill="#16103a" opacity="0.85"/>
  <rect x="901"  y="268" width="16"  height="1"   fill="#00ffcc" opacity="0.35"/>

  <!-- ===== BUILDING GROUP 12 – right ===== -->
  <rect x="984"  y="215" width="95"  height="285" fill="url(#bldC)"/>
  <rect x="994"  y="200" width="75"  height="15"  fill="#14103a" opacity="0.90"/>
  <rect x="1008" y="180" width="47"  height="20"  fill="#180e38"/>
  <rect x="1008" y="177" width="47"  height="3"   fill="#00ff88" opacity="0.60" filter="url(#neonGlow)"/>
  <g fill="#ffcc00" opacity="0.27">
    <rect x="992"  y="218" width="10" height="6"/><rect x="1008" y="218" width="10" height="6"/><rect x="1024" y="218" width="10" height="6"/><rect x="1040" y="218" width="10" height="6"/><rect x="1056" y="218" width="10" height="6"/><rect x="1062" y="218" width="10" height="6"/>
    <rect x="992"  y="234" width="10" height="6"/>                                             <rect x="1024" y="234" width="10" height="6"/>                                             <rect x="1056" y="234" width="10" height="6"/>
    <rect x="1008" y="250" width="10" height="6"/><rect x="1040" y="250" width="10" height="6"/>
    <rect x="992"  y="266" width="10" height="6"/><rect x="1024" y="266" width="10" height="6"/><rect x="1062" y="266" width="10" height="6"/>
    <rect x="1008" y="282" width="10" height="6"/><rect x="1040" y="282" width="10" height="6"/>
  </g>
  <g fill="#00ffcc" opacity="0.40">
    <rect x="1008" y="234" width="10" height="6"/>
    <rect x="1056" y="250" width="10" height="6"/>
  </g>
  <rect x="984"  y="213" width="95"  height="2"   fill="#00cc88" opacity="0.50" filter="url(#neonGlow)"/>
  <!-- antenna -->
  <rect x="1029" y="158" width="3"   height="22"  fill="#14103a"/>
  <circle cx="1030" cy="157" r="3"   fill="#ff3333" opacity="0.82">
    <animate attributeName="opacity" values="0.2;0.95;0.2" dur="1.0s" repeatCount="indefinite"/>
  </circle>

  <!-- ===== BUILDING GROUP 13 – far right ===== -->
  <rect x="1082" y="250" width="65"  height="250" fill="url(#bldA)"/>
  <rect x="1082" y="238" width="65"  height="12"  fill="#1a1240" opacity="0.90"/>
  <g fill="#ffcc00" opacity="0.26">
    <rect x="1090" y="254" width="7" height="4"/><rect x="1103" y="254" width="7" height="4"/><rect x="1116" y="254" width="7" height="4"/><rect x="1129" y="254" width="7" height="4"/>
    <rect x="1090" y="266" width="7" height="4"/>                                              <rect x="1116" y="266" width="7" height="4"/>
    <rect x="1103" y="278" width="7" height="4"/><rect x="1129" y="278" width="7" height="4"/>
    <rect x="1090" y="290" width="7" height="4"/><rect x="1116" y="290" width="7" height="4"/>
  </g>
  <rect x="1082" y="236" width="65"  height="2"   fill="#ff3300" opacity="0.50" filter="url(#neonGlow)"/>

  <!-- ===== BUILDING GROUP 14 – right ===== -->
  <rect x="1150" y="210" width="88"  height="290" fill="url(#bldB)"/>
  <rect x="1158" y="196" width="72"  height="14"  fill="#1c1444" opacity="0.90"/>
  <rect x="1170" y="176" width="48"  height="20"  fill="#201848"/>
  <rect x="1170" y="173" width="48"  height="3"   fill="#ff0066" opacity="0.65" filter="url(#neonGlow)"/>
  <g fill="#ffcc00" opacity="0.27">
    <rect x="1158" y="214" width="9" height="5"/><rect x="1173" y="214" width="9" height="5"/><rect x="1188" y="214" width="9" height="5"/><rect x="1203" y="214" width="9" height="5"/><rect x="1218" y="214" width="9" height="5"/>
    <rect x="1158" y="228" width="9" height="5"/>                                              <rect x="1188" y="228" width="9" height="5"/>                                              <rect x="1218" y="228" width="9" height="5"/>
    <rect x="1173" y="242" width="9" height="5"/><rect x="1203" y="242" width="9" height="5"/>
    <rect x="1158" y="256" width="9" height="5"/><rect x="1188" y="256" width="9" height="5"/><rect x="1218" y="256" width="9" height="5"/>
    <rect x="1173" y="270" width="9" height="5"/><rect x="1203" y="270" width="9" height="5"/>
  </g>
  <g fill="#ff0088" opacity="0.40">
    <rect x="1173" y="228" width="9" height="5"/>
    <rect x="1218" y="242" width="9" height="5"/>
    <rect x="1188" y="270" width="9" height="5"/>
  </g>
  <rect x="1150" y="208" width="88"  height="2"   fill="#ff0066" opacity="0.55" filter="url(#neonGlow)"/>
  <!-- antenna -->
  <rect x="1191" y="154" width="3"   height="22"  fill="#1c1440"/>
  <circle cx="1192" cy="153" r="3.5" fill="#ff3333" opacity="0.88">
    <animate attributeName="opacity" values="0.2;1;0.2" dur="1.2s" repeatCount="indefinite"/>
  </circle>

  <!-- ===== BUILDING GROUP 15 – far right ===== -->
  <rect x="1242" y="228" width="80"  height="272" fill="url(#bldC)"/>
  <rect x="1242" y="215" width="80"  height="13"  fill="#16103c" opacity="0.90"/>
  <g fill="#ffcc00" opacity="0.26">
    <rect x="1250" y="232" width="8" height="5"/><rect x="1264" y="232" width="8" height="5"/><rect x="1278" y="232" width="8" height="5"/><rect x="1292" y="232" width="8" height="5"/><rect x="1306" y="232" width="8" height="5"/>
    <rect x="1250" y="246" width="8" height="5"/>                                              <rect x="1278" y="246" width="8" height="5"/>                                              <rect x="1306" y="246" width="8" height="5"/>
    <rect x="1264" y="260" width="8" height="5"/><rect x="1292" y="260" width="8" height="5"/>
    <rect x="1250" y="274" width="8" height="5"/><rect x="1278" y="274" width="8" height="5"/>
  </g>
  <rect x="1242" y="213" width="80"  height="2"   fill="#0099ff" opacity="0.55" filter="url(#neonGlow)"/>

  <!-- ===== RIGHT EDGE BUILDINGS ===== -->
  <rect x="1326" y="245" width="60"  height="255" fill="url(#bldA)"/>
  <rect x="1326" y="233" width="60"  height="12"  fill="#1a1240" opacity="0.90"/>
  <g fill="#ffcc00" opacity="0.26">
    <rect x="1334" y="248" width="7" height="4"/><rect x="1347" y="248" width="7" height="4"/><rect x="1360" y="248" width="7" height="4"/><rect x="1373" y="248" width="7" height="4"/>
    <rect x="1334" y="260" width="7" height="4"/>                                              <rect x="1360" y="260" width="7" height="4"/>
    <rect x="1347" y="272" width="7" height="4"/><rect x="1373" y="272" width="7" height="4"/>
  </g>
  <rect x="1326" y="231" width="60"  height="2"   fill="#cc0066" opacity="0.50" filter="url(#neonGlow)"/>

  <rect x="1390" y="215" width="85"  height="285" fill="url(#bldB)"/>
  <rect x="1398" y="200" width="69"  height="15"  fill="#1c1444" opacity="0.90"/>
  <rect x="1410" y="182" width="45"  height="18"  fill="#1e1848"/>
  <rect x="1410" y="179" width="45"  height="3"   fill="#00ffaa" opacity="0.60" filter="url(#neonGlow)"/>
  <g fill="#ffcc00" opacity="0.26">
    <rect x="1398" y="218" width="9" height="5"/><rect x="1413" y="218" width="9" height="5"/><rect x="1428" y="218" width="9" height="5"/><rect x="1443" y="218" width="9" height="5"/><rect x="1458" y="218" width="9" height="5"/>
    <rect x="1398" y="232" width="9" height="5"/>                                              <rect x="1428" y="232" width="9" height="5"/>
    <rect x="1413" y="246" width="9" height="5"/><rect x="1443" y="246" width="9" height="5"/>
    <rect x="1398" y="260" width="9" height="5"/><rect x="1428" y="260" width="9" height="5"/><rect x="1458" y="260" width="9" height="5"/>
  </g>
  <rect x="1390" y="213" width="85"  height="2"   fill="#00ccaa" opacity="0.50" filter="url(#neonGlow)"/>
  <!-- antenna -->
  <rect x="1429" y="162" width="3"   height="20"  fill="#1c1440"/>
  <circle cx="1430" cy="161" r="3"   fill="#ff3333" opacity="0.82">
    <animate attributeName="opacity" values="0.15;0.95;0.15" dur="1.4s" repeatCount="indefinite"/>
  </circle>

  <rect x="1478" y="258" width="55"  height="242" fill="url(#bldC)"/>
  <rect x="1478" y="246" width="55"  height="12"  fill="#14103c" opacity="0.90"/>
  <g fill="#ffcc00" opacity="0.25">
    <rect x="1484" y="262" width="7" height="4"/><rect x="1497" y="262" width="7" height="4"/><rect x="1510" y="262" width="7" height="4"/><rect x="1523" y="262" width="7" height="4"/>
    <rect x="1484" y="274" width="7" height="4"/>                                              <rect x="1510" y="274" width="7" height="4"/>
    <rect x="1497" y="286" width="7" height="4"/>
  </g>
  <rect x="1478" y="244" width="55"  height="2"   fill="#9900cc" opacity="0.50" filter="url(#neonGlow)"/>

  <rect x="1536" y="240" width="64"  height="260" fill="url(#bldA)"/>
  <rect x="1536" y="228" width="64"  height="12"  fill="#1a1240" opacity="0.90"/>
  <g fill="#ffcc00" opacity="0.25">
    <rect x="1544" y="244" width="8" height="5"/><rect x="1558" y="244" width="8" height="5"/><rect x="1572" y="244" width="8" height="5"/><rect x="1586" y="244" width="8" height="5"/>
    <rect x="1544" y="258" width="8" height="5"/>                                              <rect x="1572" y="258" width="8" height="5"/>
    <rect x="1558" y="272" width="8" height="5"/>
  </g>
  <rect x="1536" y="226" width="64"  height="2"   fill="#3300cc" opacity="0.50" filter="url(#neonGlow)"/>

  <!-- Holographic billboard – left -->
  <rect x="258" y="230" width="65"  height="36"  fill="#0a0820" opacity="0.88" rx="2"/>
  <rect x="258" y="230" width="65"  height="2"   fill="#00ffcc" opacity="0.70"/>
  <rect x="258" y="264" width="65"  height="2"   fill="#00ffcc" opacity="0.70"/>
  <rect x="258" y="232" width="2"   height="32"  fill="#00ffcc" opacity="0.70"/>
  <rect x="321" y="232" width="2"   height="32"  fill="#00ffcc" opacity="0.70"/>
  <text x="290" y="253" font-family="monospace" font-size="10" fill="#00ffcc" opacity="0.80">NEXUS</text>

  <!-- Holographic billboard – right -->
  <rect x="998" y="220" width="72"  height="38"  fill="#0a0820" opacity="0.88" rx="2"/>
  <rect x="998" y="220" width="72"  height="2"   fill="#ff0088" opacity="0.70"/>
  <rect x="998" y="256" width="72"  height="2"   fill="#ff0088" opacity="0.70"/>
  <rect x="998" y="222" width="2"   height="34"  fill="#ff0088" opacity="0.70"/>
  <rect x="1068" y="222" width="2"  height="34"  fill="#ff0088" opacity="0.70"/>
  <text x="1010" y="244" font-family="monospace" font-size="10" fill="#ff0088" opacity="0.80">CORP-X</text>
</svg>
